<svg width="24" height="25" viewBox="0 0 24 25" fill="none" xmlns="http://www.w3.org/2000/svg">
<g id="gridicons:play">
<path id="Vector" d="M12 2.68439C10.0222 2.68439 8.08879 3.27088 6.4443 4.36969C4.79981 5.46851 3.51809 7.03029 2.76121 8.85755C2.00433 10.6848 1.8063 12.6955 2.19215 14.6353C2.578 16.5751 3.53041 18.3569 4.92894 19.7555C6.32746 21.154 8.10929 22.1064 10.0491 22.4922C11.9889 22.8781 13.9996 22.6801 15.8268 21.9232C17.6541 21.1663 19.2159 19.8846 20.3147 18.2401C21.4135 16.5956 22 14.6622 22 12.6844C22 11.3712 21.7413 10.0708 21.2388 8.85755C20.7363 7.6443 19.9997 6.54191 19.0711 5.61332C18.1425 4.68473 17.0401 3.94814 15.8268 3.44559C14.6136 2.94304 13.3132 2.68439 12 2.68439ZM10 17.1844V8.18439L16 12.6844L10 17.1844Z" fill="#20E46E"/>
</g>
</svg>
