<svg width="32" height="33" viewBox="0 0 32 33" fill="none" xmlns="http://www.w3.org/2000/svg">
<g id="Frame" clip-path="url(#clip0_39_82)">
<g id="Group">
<g id="Layer 1">
<g id="Group_2">
<path id="Vector" fill-rule="evenodd" clip-rule="evenodd" d="M16.0982 3.29004C15.7811 3.29004 15.5113 3.41413 15.3021 3.64925C13.5007 5.73267 11.8005 11.5257 10.4849 11.6368C7.36792 11.9111 2.0987 12.0613 0.492969 12.1462C0.398515 12.6491 0.391768 14.0859 0.506463 14.7064C0.526703 14.8305 0.580677 14.948 0.654892 15.0656C2.14593 17.3711 6.60553 20.7542 7.01709 21.9689C6.673 23.6344 6.11977 27.0109 6.0523 28.3955C6.0523 29.3034 6.00507 30.27 6.06579 31.1778C6.08603 31.4847 6.23446 31.7395 6.49084 31.9158C6.74722 32.0987 7.04407 32.1509 7.34768 32.0791C10.0734 31.4194 14.7759 28.3563 16.0982 28.3563C17.4206 28.3563 22.1231 31.4194 24.8488 32.0791C25.1591 32.1509 25.4492 32.0987 25.7056 31.9158C25.962 31.7329 26.1104 31.4782 26.1307 31.1778C26.1981 30.27 26.1442 29.3034 26.1442 28.3955C26.0767 27.0109 25.5167 23.6409 25.1794 21.9689C25.5909 20.7476 30.0505 17.3711 31.5416 15.0656C31.6158 14.9546 31.663 14.8305 31.69 14.7064C31.8047 14.0794 31.8047 12.6426 31.7035 12.1462C30.0978 12.0678 24.8353 11.9111 21.7115 11.6368C20.3959 11.5192 18.6957 5.73267 16.8943 3.64925C16.6919 3.41413 16.4153 3.29004 16.0982 3.29004Z" fill="url(#paint0_radial_39_82)"/>
<path id="Vector_2" fill-rule="evenodd" clip-rule="evenodd" d="M24.8488 29.6826C25.1591 29.7544 25.4492 29.7022 25.7056 29.5193C25.962 29.3364 26.1104 29.0817 26.1307 28.7813C26.3263 26.0709 24.7678 20.7938 25.1794 19.579C25.5909 18.3577 30.0505 14.9811 31.5416 12.6756C31.7102 12.4144 31.744 12.127 31.6495 11.8331C31.5483 11.5392 31.3459 11.3302 31.0558 11.2127C28.4515 10.1938 22.791 9.99789 21.7183 9.24681C20.6455 8.49574 18.7025 3.34271 16.9011 1.2593C16.6852 1.01765 16.4153 0.893555 16.0982 0.893555C15.7811 0.893555 15.5113 1.01765 15.3021 1.25276C13.5007 3.33618 11.5577 8.48921 10.4849 9.24028C9.41219 9.99136 3.75166 10.1938 1.14741 11.2061C0.850555 11.3237 0.648152 11.5327 0.553697 11.8266C0.459242 12.1205 0.492976 12.4079 0.661645 12.6691C2.15268 14.9746 6.61229 18.3577 7.02384 19.5725C7.43539 20.7938 5.87689 26.0644 6.07255 28.7748C6.09279 29.0817 6.24122 29.3364 6.49759 29.5128C6.75397 29.6956 7.05083 29.7479 7.35443 29.6761C10.0801 29.0164 14.7826 25.9533 16.105 25.9533C17.4273 25.9533 22.1298 29.0164 24.8555 29.6761L24.8488 29.6826Z" fill="url(#paint1_radial_39_82)"/>
<path id="Vector_3" style="mix-blend-mode:multiply" fill-rule="evenodd" clip-rule="evenodd" d="M30.4756 12.5381C27.3249 14.726 25.5572 16.0322 22.8045 17.7891C22.4335 18.0242 22.0759 18.5336 22.2108 18.9386C23.0204 21.4726 25.3211 25.5284 25.483 28.0625C25.5774 29.5516 24.2686 29.1009 23.4927 28.7809C20.8277 27.6706 19.0331 26.1032 16.4828 24.8427C15.5248 24.3659 14.8096 24.5096 13.9663 25.0451C12.428 26.0183 9.68208 28.4021 7.39493 29.0944C6.74724 29.2903 6.34244 29.2446 6.08606 28.9573C6.14003 29.1859 6.27497 29.3818 6.48412 29.5255C6.74049 29.7083 7.03735 29.7606 7.34096 29.6887C10.0666 29.0291 14.7691 25.966 16.0915 25.966C17.4139 25.966 22.1164 29.0291 24.842 29.6887C25.1524 29.7606 25.4425 29.7083 25.6989 29.5255C25.9553 29.3426 26.1037 29.0879 26.1239 28.7875C26.3196 26.0771 24.7611 20.7999 25.1726 19.5852C25.5842 18.3638 30.0438 14.9873 31.5348 12.6818C31.7035 12.4206 31.7372 12.1332 31.6428 11.8393C31.5416 11.5454 31.3392 11.3364 31.0491 11.2188C28.4448 10.2 22.7843 10.0041 21.7116 9.25298C20.6388 8.5019 18.6958 3.34888 16.8944 1.26546C16.692 1.03034 16.4153 0.90625 16.0982 0.90625C15.7812 0.90625 15.5113 1.03034 15.3021 1.26546C15.0188 1.59201 14.7354 1.99041 14.452 2.43452C15.2414 1.63773 16.0578 1.14137 16.7864 2.24512C18.1425 4.29588 18.7295 6.49033 19.4581 8.56068C19.9169 9.85384 20.1868 10.3829 22.818 10.5592C25.8271 10.7617 28.3301 10.9576 30.1248 11.2515C31.1098 11.4148 31.1368 12.0875 30.4688 12.5446L30.4756 12.5381Z" fill="url(#paint2_radial_39_82)"/>
<path id="Vector_4" style="mix-blend-mode:screen" fill-rule="evenodd" clip-rule="evenodd" d="M14.3575 3.01597C13.5006 4.55078 12.7585 6.22273 11.9624 7.78366C11.2809 9.11601 11.0313 9.89974 9.33112 10.1871C7.23288 10.5333 5.08741 10.592 2.98242 10.9251C0.702016 11.2778 0.169022 11.7807 1.82198 13.5506C2.80026 14.6021 7.28685 18.5273 7.57696 19.4939C7.84009 20.3429 7.34757 21.9039 7.30709 22.8835C7.28685 23.3472 7.46902 24.0395 8.26513 23.1905C14.4519 16.5745 16.0307 15.3401 25.0308 12.4338C26.0024 12.1203 26.9941 11.8917 27.9724 11.6043C28.2423 11.526 28.6134 11.2647 27.8038 11.1537C24.9904 10.7814 22.7369 11.0819 20.3014 10.8663C19.2151 10.7684 18.5202 9.50787 18.1829 8.62617C17.4745 6.76481 17.1034 4.79896 16.4287 2.93107C15.8957 1.46157 14.9174 1.99712 14.344 3.02903L14.3575 3.01597Z" fill="url(#paint3_radial_39_82)"/>
<path id="Vector_5" style="mix-blend-mode:screen" fill-rule="evenodd" clip-rule="evenodd" d="M7.15885 11.637C6.57863 11.5259 6.72705 10.9447 7.26005 10.8206C8.12363 10.6247 9.0277 10.5855 9.89128 10.3895C10.7684 10.1871 11.3081 9.90623 11.8276 8.86779C12.7519 7.01949 13.6897 4.64871 14.668 3.0094C15.0256 2.42161 15.4236 2.50651 15.3292 3.17268C15.0323 5.26916 14.5196 7.26767 13.9056 9.35109C13.5953 10.4026 13.2512 11.5325 11.7534 11.7023C10.6604 11.8329 8.29905 11.859 7.15885 11.637ZM5.03362 10.9643C4.35219 11.01 2.9961 11.1733 2.1595 11.4541C1.25543 11.7611 1.44434 11.9505 2.26745 11.9962C3.14452 12.0419 4.02835 12.0354 4.90543 11.9766C6.14009 11.8851 5.97142 10.9055 5.04036 10.9708L5.03362 10.9643Z" fill="url(#paint4_radial_39_82)"/>
<path id="Vector_6" style="mix-blend-mode:screen" fill-rule="evenodd" clip-rule="evenodd" d="M22.7573 27.2206C22.3525 27.3839 21.3674 27.5929 22.5616 28.2264C23.0676 28.4942 23.6141 28.6967 24.1673 28.8534C25.3615 29.18 25.375 28.3505 25.1928 27.508C24.8488 25.8752 24.0729 23.9551 23.3577 22.368C23.0271 21.6431 22.6223 21.2643 22.7505 22.4203C22.8989 23.7265 23.1351 25.0197 23.2768 26.3259C23.3375 26.9202 23.3172 27.0051 22.764 27.2206H22.7573Z" fill="url(#paint5_radial_39_82)"/>
<path id="Vector_7" fill-rule="evenodd" clip-rule="evenodd" d="M6.92938 21.7733C7.07781 20.7675 7.15202 19.9642 7.01709 19.5723C6.60553 18.351 2.14593 14.9744 0.654892 12.669C0.546943 12.5057 0.492969 12.3228 0.492969 12.1465C0.398515 12.6494 0.391768 14.0862 0.506463 14.7067C0.526703 14.8308 0.580677 14.9483 0.654892 15.0659C2.07171 17.2538 6.17374 20.4214 6.92938 21.7733Z" fill="url(#paint6_radial_39_82)"/>
<path id="Vector_8" fill-rule="evenodd" clip-rule="evenodd" d="M31.5348 12.669C30.0438 14.9744 25.5842 18.3575 25.1726 19.5723C25.0444 19.9642 25.1119 20.7675 25.2603 21.7733C26.0092 20.4214 30.118 17.2538 31.5348 15.0659C31.609 14.9549 31.6562 14.8308 31.6832 14.7067C31.7979 14.0797 31.7979 12.6428 31.6967 12.1465C31.6967 12.3294 31.6427 12.5057 31.5348 12.669Z" fill="url(#paint7_radial_39_82)"/>
<path id="Vector_9" fill-rule="evenodd" clip-rule="evenodd" d="M24.8487 29.6827C22.123 29.023 17.4205 25.96 16.0981 25.96C16.5164 26.2016 16.5097 28.0434 16.0981 28.3569C17.4205 28.3569 22.123 31.4199 24.8487 32.0796C25.159 32.1514 25.4492 32.0992 25.7055 31.9163C25.9619 31.7334 26.1103 31.4787 26.1306 31.1783C26.1913 30.2966 26.1441 29.3561 26.1441 28.4679C26.1441 28.5789 26.1373 28.6834 26.1306 28.7814C26.1103 29.0884 25.9619 29.3431 25.7055 29.5194C25.4492 29.7023 25.1523 29.7545 24.8487 29.6827Z" fill="url(#paint8_radial_39_82)"/>
<path id="Vector_10" style="mix-blend-mode:screen" opacity="0.5" fill-rule="evenodd" clip-rule="evenodd" d="M7.77283 31.9554C7.60417 31.5896 7.58393 29.8524 7.74585 29.5715C7.61091 29.6107 7.47598 29.6499 7.34779 29.6826C7.03744 29.7544 6.74733 29.7021 6.49095 29.5193C6.2818 29.3756 6.14686 29.1797 6.09289 28.9511C6.0794 28.8988 6.07265 28.84 6.0659 28.7813C6.05916 28.6833 6.05241 28.5723 6.05241 28.4678C6.05241 29.356 6.00518 30.2965 6.0659 31.1782C6.08614 31.4851 6.23457 31.7398 6.49095 31.9162C6.74733 32.0991 7.04418 32.1513 7.34779 32.0795C7.48272 32.0468 7.62441 32.0076 7.77283 31.9619V31.9554Z" fill="url(#paint9_radial_39_82)"/>
<path id="Vector_11" style="mix-blend-mode:screen" opacity="0.5" fill-rule="evenodd" clip-rule="evenodd" d="M24.417 31.9554C24.5857 31.5896 24.6059 29.8524 24.444 29.5715C24.5789 29.6107 24.7138 29.6499 24.842 29.6826C25.1524 29.7544 25.4425 29.7021 25.6989 29.5193C25.908 29.3756 26.043 29.1797 26.0969 28.9511C26.1104 28.8988 26.1172 28.84 26.1239 28.7813C26.1307 28.6833 26.1374 28.5723 26.1374 28.4678C26.1374 29.356 26.1846 30.2965 26.1239 31.1782C26.1037 31.4851 25.9553 31.7398 25.6989 31.9162C25.4425 32.0991 25.1456 32.1513 24.842 32.0795C24.7071 32.0468 24.5654 32.0076 24.417 31.9619V31.9554Z" fill="url(#paint10_radial_39_82)"/>
<path id="Vector_12" style="mix-blend-mode:screen" opacity="0.5" fill-rule="evenodd" clip-rule="evenodd" d="M1.64667 16.3195C1.31607 15.5423 1.28909 13.9292 1.66691 13.9488C1.2621 13.4981 0.918015 13.0671 0.654892 12.6621C0.546943 12.4989 0.492969 12.316 0.492969 12.1396C0.398515 12.6425 0.391768 14.0794 0.506463 14.6998C0.526703 14.8239 0.580677 14.9415 0.654892 15.059C0.911269 15.4509 1.24861 15.8754 1.64667 16.3195Z" fill="url(#paint11_radial_39_82)"/>
<path id="Vector_13" style="mix-blend-mode:screen" opacity="0.5" fill-rule="evenodd" clip-rule="evenodd" d="M30.5498 16.3195C30.8804 15.5423 30.9074 13.9292 30.5295 13.9488C30.9343 13.4981 31.2784 13.0671 31.5416 12.6621C31.6495 12.4989 31.7035 12.316 31.7035 12.1396C31.7979 12.6425 31.8047 14.0794 31.69 14.6998C31.6697 14.8239 31.6158 14.9415 31.5416 15.059C31.2852 15.4509 30.9478 15.8754 30.5498 16.3195Z" fill="url(#paint12_radial_39_82)"/>
</g>
</g>
</g>
</g>
<defs>
<radialGradient id="paint0_radial_39_82" cx="0" cy="0" r="1" gradientUnits="userSpaceOnUse" gradientTransform="translate(6.32892 32.3664) scale(13.1359 12.716)">
<stop stop-color="#FC8200"/>
<stop offset="1" stop-color="#E34F00"/>
</radialGradient>
<radialGradient id="paint1_radial_39_82" cx="0" cy="0" r="1" gradientUnits="userSpaceOnUse" gradientTransform="translate(9.66182 7.35933) scale(29.0381 28.1098)">
<stop stop-color="#FCF800"/>
<stop offset="1" stop-color="#FC9700"/>
</radialGradient>
<radialGradient id="paint2_radial_39_82" cx="0" cy="0" r="1" gradientUnits="userSpaceOnUse" gradientTransform="translate(10.3703 6.11153) scale(30.2322 29.2658)">
<stop stop-color="white"/>
<stop offset="0.1" stop-color="#FFFCF9"/>
<stop offset="0.22" stop-color="#FFF6E9"/>
<stop offset="0.36" stop-color="#FFECCE"/>
<stop offset="0.51" stop-color="#FFDEA9"/>
<stop offset="0.67" stop-color="#FFCB7A"/>
<stop offset="0.84" stop-color="#FFB540"/>
<stop offset="1" stop-color="#FF9D00"/>
</radialGradient>
<radialGradient id="paint3_radial_39_82" cx="0" cy="0" r="1" gradientUnits="userSpaceOnUse" gradientTransform="translate(6.22087 2.0559) scale(25.7119 24.89)">
<stop stop-color="#FFF261"/>
<stop offset="0.11" stop-color="#FAED5F"/>
<stop offset="0.23" stop-color="#ECE05A"/>
<stop offset="0.36" stop-color="#D6CB51"/>
<stop offset="0.5" stop-color="#B6AD45"/>
<stop offset="0.64" stop-color="#8E8636"/>
<stop offset="0.78" stop-color="#5C5723"/>
<stop offset="0.92" stop-color="#22210D"/>
<stop offset="1"/>
</radialGradient>
<radialGradient id="paint4_radial_39_82" cx="0" cy="0" r="1" gradientUnits="userSpaceOnUse" gradientTransform="translate(10.3838 4.98179) scale(15.2679 14.7798)">
<stop stop-color="#FFFACF"/>
<stop offset="1"/>
</radialGradient>
<radialGradient id="paint5_radial_39_82" cx="0" cy="0" r="1" gradientUnits="userSpaceOnUse" gradientTransform="translate(15.4235 24.2163) scale(18.2837 17.6992)">
<stop/>
<stop offset="0.17" stop-color="#251B00"/>
<stop offset="0.54" stop-color="#846100"/>
<stop offset="1" stop-color="#FFBB00"/>
</radialGradient>
<radialGradient id="paint6_radial_39_82" cx="0" cy="0" r="1" gradientUnits="userSpaceOnUse" gradientTransform="translate(1.68715 13.5376) scale(9.06765 8.77778)">
<stop stop-color="#FCAC00"/>
<stop offset="1" stop-color="#E36600"/>
</radialGradient>
<radialGradient id="paint7_radial_39_82" cx="0" cy="0" r="1" gradientUnits="userSpaceOnUse" gradientTransform="translate(46.5801 21.5512) scale(21.7246 21.0301)">
<stop stop-color="#FCAC00"/>
<stop offset="1" stop-color="#E36600"/>
</radialGradient>
<radialGradient id="paint8_radial_39_82" cx="0" cy="0" r="1" gradientUnits="userSpaceOnUse" gradientTransform="translate(27.797 28.5006) scale(11.5505 11.1812)">
<stop stop-color="#FCAC00"/>
<stop offset="1" stop-color="#FF6600"/>
</radialGradient>
<radialGradient id="paint9_radial_39_82" cx="0" cy="0" r="1" gradientUnits="userSpaceOnUse" gradientTransform="translate(4.80426 27.0113) scale(6.47014 6.26331)">
<stop stop-color="#FFF261"/>
<stop offset="0.11" stop-color="#FAED5F"/>
<stop offset="0.23" stop-color="#ECE05A"/>
<stop offset="0.36" stop-color="#D6CB51"/>
<stop offset="0.5" stop-color="#B6AD45"/>
<stop offset="0.64" stop-color="#8E8636"/>
<stop offset="0.78" stop-color="#5C5723"/>
<stop offset="0.92" stop-color="#22210D"/>
<stop offset="1"/>
</radialGradient>
<radialGradient id="paint10_radial_39_82" cx="0" cy="0" r="1" gradientUnits="userSpaceOnUse" gradientTransform="translate(28.2154 27.4555) scale(6.74676 6.53109)">
<stop stop-color="#FFF261"/>
<stop offset="0.11" stop-color="#FAED5F"/>
<stop offset="0.23" stop-color="#ECE05A"/>
<stop offset="0.36" stop-color="#D6CB51"/>
<stop offset="0.5" stop-color="#B6AD45"/>
<stop offset="0.64" stop-color="#8E8636"/>
<stop offset="0.78" stop-color="#5C5723"/>
<stop offset="0.92" stop-color="#22210D"/>
<stop offset="1"/>
</radialGradient>
<radialGradient id="paint11_radial_39_82" cx="0" cy="0" r="1" gradientUnits="userSpaceOnUse" gradientTransform="translate(0.634651 11.7478) scale(4.54057 4.39542)">
<stop stop-color="#FFF261"/>
<stop offset="0.11" stop-color="#FAED5F"/>
<stop offset="0.23" stop-color="#ECE05A"/>
<stop offset="0.36" stop-color="#D6CB51"/>
<stop offset="0.5" stop-color="#B6AD45"/>
<stop offset="0.64" stop-color="#8E8636"/>
<stop offset="0.78" stop-color="#5C5723"/>
<stop offset="0.92" stop-color="#22210D"/>
<stop offset="1"/>
</radialGradient>
<radialGradient id="paint12_radial_39_82" cx="0" cy="0" r="1" gradientUnits="userSpaceOnUse" gradientTransform="translate(33.1136 11.5257) scale(5.95739 5.76695)">
<stop stop-color="#FFF261"/>
<stop offset="0.11" stop-color="#FAED5F"/>
<stop offset="0.23" stop-color="#ECE05A"/>
<stop offset="0.36" stop-color="#D6CB51"/>
<stop offset="0.5" stop-color="#B6AD45"/>
<stop offset="0.64" stop-color="#8E8636"/>
<stop offset="0.78" stop-color="#5C5723"/>
<stop offset="0.92" stop-color="#22210D"/>
<stop offset="1"/>
</radialGradient>
<clipPath id="clip0_39_82">
<rect width="31.3454" height="31.2121" fill="white" transform="translate(0.425537 0.893555)"/>
</clipPath>
</defs>
</svg>
