<svg width="24" height="19" viewBox="-3 0 24 19" fill="none" xmlns="http://www.w3.org/2000/svg">
<path id="Union" fill-rule="evenodd" clip-rule="evenodd" d="M8.9996 0.5C11.396 0.5009 13.6476 1.4293 15.3401 3.1139C17.0562 4.8221 18.0007 7.063 18 9.4235C17.9989 11.8008 17.0577 14.04 15.3495 15.7284C13.6455 17.4128 11.3904 18.3404 8.9998 18.3404H8.9962C7.5918 18.3399 6.1995 18.0086 4.9516 17.3803L0.0246 18.5L1.0962 13.6337C0.3784 12.3096 0.0003 10.859 0 9.421V9.4194V9.4166C0.0022 7.0409 0.943 4.7988 2.6497 3.1117C4.3534 1.4275 6.6086 0.5 8.9996 0.5ZM8.9964 16.9355H8.9996C13.1853 16.9355 16.592 13.5655 16.5936 9.4231C16.5943 7.4388 15.7966 5.5516 14.3476 4.1091C12.9202 2.6886 11.0208 1.9057 8.9993 1.9049C4.8148 1.9049 1.4088 5.2781 1.4062 9.4195C1.4062 10.699 1.7666 11.9962 2.4487 13.1714L2.5859 13.4077L1.8743 16.6388L5.1505 15.8943L5.3835 16.0207C6.4861 16.6187 7.7355 16.935 8.9964 16.9355ZM6.15622 5.4874H6.55072C6.69742 5.4934 6.85962 5.505 7.01372 5.8464C7.12014 6.08197 7.29818 6.52307 7.43875 6.87133C7.54003 7.12225 7.62185 7.32497 7.64342 7.3679C7.69492 7.4704 7.72922 7.5901 7.66062 7.7269C7.64649 7.75503 7.63403 7.78099 7.62226 7.80552C7.57676 7.9003 7.54148 7.97381 7.45982 8.0689C7.35692 8.1885 7.23192 8.314 7.13942 8.4058C7.03622 8.5081 6.92892 8.619 7.04892 8.824C7.16912 9.0292 7.59382 9.7222 8.20602 10.2656C8.86732 10.8527 9.43655 11.1019 9.72336 11.2275C9.77762 11.2512 9.82176 11.2705 9.85452 11.2869C10.0605 11.3895 10.1806 11.3723 10.3006 11.2354C10.4207 11.0987 10.825 10.6246 10.9624 10.4197C11.0997 10.2144 11.2369 10.2486 11.4256 10.3168C11.6056 10.3821 12.5304 10.8432 12.7951 10.9752C12.8081 10.9817 12.8196 10.9874 12.8292 10.9922C12.8693 11.0121 12.9068 11.0301 12.9415 11.0468C13.0852 11.1159 13.1824 11.1625 13.2239 11.2313C13.2753 11.317 13.2753 11.7274 13.1037 12.2059C12.9322 12.6845 12.0916 13.1462 11.7142 13.1803C11.6779 13.1836 11.6419 13.1878 11.6048 13.1922C11.2561 13.233 10.8157 13.2847 9.24392 12.6675C7.30994 11.9081 6.03492 10.0262 5.77151 9.63736C5.74992 9.6055 5.73512 9.58366 5.72732 9.5733L5.7249 9.57007C5.61349 9.42177 4.88672 8.45433 4.88672 7.4534C4.88672 6.50933 5.35273 6.01445 5.56711 5.78679C5.58177 5.77123 5.59525 5.75692 5.60732 5.7438C5.79592 5.5387 6.01892 5.4874 6.15622 5.4874Z" fill="#20E46E"/>
</svg>
