<svg width="120" height="122" viewBox="0 0 120 122" fill="none" xmlns="http://www.w3.org/2000/svg">
<rect x="30.7805" y="31.2794" width="59.563" height="59.563" rx="29.7815" stroke="#20E46E" stroke-width="1.00954"/>
<path d="M39.2522 56.7685V54.9489C41.7855 54.9489 42.3518 53.9924 42.8585 52.896H45.064V69.226H41.7855V56.7685H39.2522Z" fill="#20E46E"/>
<path d="M49.352 56.7504V65.3716C49.352 66.5119 50.0077 66.9453 51.0508 66.9453C52.094 66.9453 52.7497 66.5119 52.7497 65.3716V56.7504C52.7497 55.6101 52.094 55.1767 51.0508 55.1767C50.0077 55.1767 49.352 55.6101 49.352 56.7504ZM46.0735 65.2119V56.9101C46.0735 54.3557 47.832 52.896 51.0508 52.896C54.2697 52.896 56.0281 54.3557 56.0281 56.9101V65.2119C56.0281 67.7663 54.2697 69.226 51.0508 69.226C47.832 69.226 46.0735 67.7663 46.0735 65.2119Z" fill="#20E46E"/>
<path d="M60.3161 56.7504V65.3716C60.3161 66.5119 60.9718 66.9453 62.0149 66.9453C63.0581 66.9453 63.7138 66.5119 63.7138 65.3716V56.7504C63.7138 55.6101 63.0581 55.1767 62.0149 55.1767C60.9718 55.1767 60.3161 55.6101 60.3161 56.7504ZM57.0377 65.2119V56.9101C57.0377 54.3557 58.7961 52.896 62.0149 52.896C65.2338 52.896 66.9922 54.3557 66.9922 56.9101V65.2119C66.9922 67.7663 65.2338 69.226 62.0149 69.226C58.7961 69.226 57.0377 67.7663 57.0377 65.2119Z" fill="#20E46E"/>
<path d="M70.6218 55.3557V60.8771C70.6218 61.5903 70.9209 61.8894 71.45 61.8894C71.9562 61.8894 72.2783 61.5903 72.2783 60.8771V55.3557C72.2783 54.6425 71.9562 54.3434 71.45 54.3434C70.9209 54.3434 70.6218 54.6425 70.6218 55.3557ZM69.0114 60.7621V55.4707C69.0114 53.8143 69.8626 52.894 71.45 52.894C73.0375 52.894 73.8887 53.8143 73.8887 55.4707V60.7621C73.8887 62.4185 73.0375 63.3387 71.45 63.3387C69.8626 63.3387 69.0114 62.4185 69.0114 60.7621ZM71.45 69.1132L77.7997 53.0091H79.2951L72.9454 69.1132H71.45ZM78.6049 61.2452V66.7666C78.6049 67.4798 78.904 67.7789 79.4331 67.7789C79.9392 67.7789 80.2613 67.4798 80.2613 66.7666V61.2452C80.2613 60.532 79.9392 60.2329 79.4331 60.2329C78.904 60.2329 78.6049 60.532 78.6049 61.2452ZM76.9945 66.6516V61.3602C76.9945 59.7038 77.8457 58.7836 79.4331 58.7836C81.0205 58.7836 81.8717 59.7038 81.8717 61.3602V66.6516C81.8717 68.308 81.0205 69.2283 79.4331 69.2283C77.8457 69.2283 76.9945 68.308 76.9945 66.6516Z" fill="#20E46E"/>
<path d="M4.59135 47.1235L5.73568 47.3374L4.77502 52.4765L14.2833 54.2539L14.0422 55.5439L3.38956 53.5525L4.59135 47.1235Z" fill="#20E46E"/>
<path d="M4.59135 47.1235L5.73568 47.3374L4.77502 52.4765L14.2833 54.2539L14.0422 55.5439L3.38956 53.5525L4.59135 47.1235Z" fill="#20E46E"/>
<path d="M20.7933 37.0695C20.5222 37.5074 20.1936 37.8537 19.8077 38.1085C19.4187 38.3614 19.0018 38.4954 18.5568 38.5103C18.1089 38.5234 17.66 38.3907 17.2101 38.1121C16.8142 37.867 16.5416 37.5903 16.3922 37.2821C16.2398 36.972 16.1739 36.6428 16.1945 36.2946C16.2151 35.9463 16.2884 35.5934 16.4144 35.2358C16.5393 34.8733 16.6801 34.5186 16.8368 34.1716C17.0428 33.7183 17.2131 33.3528 17.3477 33.0751C17.4811 32.7926 17.5505 32.57 17.5558 32.4074C17.5629 32.2417 17.481 32.1059 17.3101 32L17.2741 31.9778C16.8302 31.7029 16.4101 31.6108 16.0137 31.7015C15.6192 31.7891 15.2706 32.0774 14.9679 32.5663C14.654 33.0732 14.5189 33.5393 14.5626 33.9647C14.6063 34.39 14.7178 34.7392 14.8974 35.0122L13.9135 35.7971C13.605 35.3571 13.4266 34.9148 13.3784 34.47C13.329 34.0203 13.3683 33.5883 13.4963 33.1738C13.6232 32.7544 13.7944 32.3708 14.0098 32.0229C14.1472 31.8009 14.3321 31.5627 14.5643 31.3082C14.7955 31.0488 15.0756 30.8343 15.4047 30.6647C15.7356 30.492 16.1203 30.4169 16.5586 30.4394C16.997 30.4618 17.4906 30.643 18.0395 30.9829L22.5925 33.8019L21.935 34.8637L20.9992 34.2843L20.9658 34.3383C21.0712 34.5031 21.1574 34.7224 21.2244 34.9962C21.2913 35.2701 21.2984 35.5836 21.2457 35.9368C21.193 36.29 21.0422 36.6676 20.7933 37.0695ZM19.9398 36.317C20.1998 35.8971 20.3365 35.4921 20.3498 35.102C20.365 34.7089 20.2876 34.3581 20.1176 34.0496C19.9495 33.7381 19.7215 33.4932 19.4336 33.3149L18.4618 32.7132C18.488 32.7916 18.4762 32.9212 18.4264 33.102C18.3756 33.278 18.3054 33.4752 18.2158 33.6936C18.1251 33.9071 18.0341 34.1143 17.943 34.3151C17.8507 34.511 17.7768 34.6706 17.7212 34.7939C17.5863 35.0921 17.4851 35.3863 17.4175 35.6764C17.3488 35.9616 17.3484 36.2269 17.4164 36.4723C17.4832 36.7128 17.6516 36.9167 17.9215 37.0838C18.2904 37.3122 18.6539 37.3485 19.0118 37.1925C19.3686 37.0317 19.678 36.7399 19.9398 36.317Z" fill="#20E46E"/>
<path d="M31.6655 28.4926L24.9306 19.5742L25.8934 18.8471L26.6715 19.8775L26.7897 19.7882C26.7779 19.6203 26.7708 19.4002 26.7685 19.1278C26.7669 18.8506 26.8365 18.5505 26.9772 18.2276C27.1186 17.8998 27.4005 17.5764 27.8228 17.2575C28.3689 16.8451 28.9534 16.6181 29.5763 16.5765C30.1992 16.5349 30.8166 16.6765 31.4287 17.0011C32.0408 17.3258 32.604 17.8287 33.1185 18.51C33.6372 19.1969 33.97 19.8806 34.1169 20.5609C34.2617 21.2385 34.2313 21.8715 34.0258 22.4599C33.8182 23.0454 33.4441 23.5423 32.9036 23.9505C32.487 24.2651 32.1013 24.4481 31.7466 24.4993C31.3897 24.5478 31.0768 24.5344 30.8077 24.459C30.5365 24.3809 30.3197 24.3104 30.1572 24.2474L30.0727 24.3112L32.6621 27.7401L31.6655 28.4926ZM28.3594 22.0774C28.7293 22.5673 29.1274 22.9452 29.5537 23.2112C29.9779 23.4744 30.4077 23.6074 30.843 23.6102C31.2762 23.6101 31.6927 23.4592 32.0924 23.1573C32.5091 22.8427 32.7739 22.4703 32.8867 22.0403C33.0003 21.6053 32.9861 21.1474 32.8441 20.6667C32.7028 20.1811 32.4578 19.7074 32.1092 19.2457C31.7648 18.7896 31.384 18.4318 30.9669 18.1721C30.5505 17.9075 30.1207 17.7745 29.6776 17.7731C29.2352 17.7668 28.8029 17.9231 28.3806 18.242C27.9752 18.5481 27.7122 18.9081 27.5915 19.322C27.4686 19.733 27.475 20.1747 27.6107 20.6469C27.7441 21.1164 27.9937 21.5932 28.3594 22.0774Z" fill="#20E46E"/>
<path d="M47.2034 17.0014C46.708 17.1424 46.2319 17.177 45.775 17.1053C45.3172 17.0301 44.9188 16.8482 44.58 16.5595C44.2401 16.2675 43.9978 15.8669 43.853 15.358C43.7255 14.9101 43.7105 14.5219 43.8077 14.1935C43.904 13.8617 44.0771 13.574 44.3269 13.3306C44.5767 13.0871 44.8687 12.8757 45.2028 12.6963C45.5392 12.5125 45.8823 12.3452 46.2318 12.1944C46.6895 11.9982 47.0615 11.8428 47.348 11.7283C47.637 11.6094 47.8382 11.4916 47.9517 11.375C48.0686 11.2573 48.0996 11.1018 48.0445 10.9084L48.033 10.8677C47.8901 10.3655 47.6416 10.0144 47.2876 9.81441C46.937 9.61341 46.4852 9.5916 45.9321 9.74896C45.3587 9.91211 44.9448 10.1656 44.6906 10.5093C44.4363 10.8531 44.2835 11.1863 44.2323 11.509L42.9763 11.4262C43.0448 10.8932 43.211 10.4462 43.475 10.085C43.7414 9.71941 44.0616 9.4266 44.4354 9.20653C44.8117 8.98211 45.1966 8.8139 45.5902 8.70191C45.8413 8.63047 46.1384 8.57895 46.4815 8.54735C46.827 8.51138 47.1786 8.54157 47.5361 8.63791C47.897 8.73328 48.2318 8.93693 48.5406 9.24884C48.8494 9.56076 49.0922 10.0272 49.2688 10.6481L50.7343 15.7988L49.5332 16.1405L49.232 15.0819L49.1709 15.0993C49.1377 15.2921 49.0537 15.5122 48.9187 15.7597C48.7837 16.0072 48.5778 16.2436 48.3008 16.4691C48.0239 16.6946 47.6581 16.8721 47.2034 17.0014ZM47.0796 15.8703C47.5547 15.7352 47.9285 15.5279 48.2011 15.2486C48.4772 14.9684 48.6563 14.657 48.7386 14.3145C48.8242 13.971 48.8207 13.6364 48.728 13.3107L48.4153 12.2114C48.3817 12.2869 48.2857 12.3748 48.1271 12.4749C47.971 12.5707 47.7863 12.6691 47.5729 12.7701C47.362 12.8668 47.1553 12.9586 46.9526 13.0456C46.7524 13.1283 46.5903 13.1964 46.4661 13.2501C46.1656 13.3796 45.8926 13.5288 45.6472 13.6976C45.4043 13.8621 45.2252 14.0579 45.1102 14.2851C44.9975 14.5078 44.9846 14.7719 45.0715 15.0773C45.1902 15.4946 45.4344 15.7663 45.804 15.8922C46.176 16.0137 46.6012 16.0064 47.0796 15.8703Z" fill="#20E46E"/>
<path d="M66.8465 10.8116L66.7391 11.9708L62.271 11.5568L62.3784 10.3976L66.8465 10.8116ZM62.9957 6.94738L62.2458 15.0406L61.0023 14.9253L61.7523 6.83216L62.9957 6.94738ZM68.1172 7.42195L67.3673 15.5151L66.1238 15.3999L66.8737 7.30673L68.1172 7.42195Z" fill="#20E46E"/>
<path d="M80.6193 12.1595L81.1383 11.1174L87.0498 14.061L86.5309 15.1031L84.1435 13.9144L81.0396 20.148L79.9217 19.5914L83.0257 13.3577L80.6193 12.1595Z" fill="#20E46E"/>
<path d="M93.9654 27.327L101.249 25.9857L102.219 27.0494L96.2122 32.5251L95.3709 31.6022L100.017 27.3671L92.7471 28.7241L91.7632 27.6448L97.7698 22.1691L98.6111 23.0919L93.9654 27.327Z" fill="#20E46E"/>
<path d="M103.745 46.6827L110.258 44.1595L109.478 42.1463C109.302 41.6924 109.059 41.3763 108.747 41.1979C108.436 41.0196 108.096 41.0018 107.728 41.1446C107.366 41.2847 107.127 41.5118 107.01 41.8256C106.895 42.1427 106.917 42.5069 107.076 42.9181L108.024 45.3654L106.938 45.786L105.99 43.3386C105.791 42.8254 105.711 42.348 105.747 41.9062C105.784 41.4644 105.932 41.0781 106.19 40.7475C106.451 40.4156 106.813 40.1598 107.277 39.9801C107.744 39.7991 108.186 39.7489 108.603 39.8295C109.02 39.91 109.395 40.111 109.728 40.4323C110.062 40.757 110.334 41.1907 110.544 41.7334L111.752 44.8519L104.173 47.788L103.745 46.6827ZM101.787 41.6301L106.391 42.321L106.88 43.5841L102.277 42.8932L101.787 41.6301Z" fill="#20E46E"/>
<path d="M104.73 68.6165L112.676 70.3264L112.413 71.5473L108.957 70.8036L108.783 71.6106L111.625 75.2098L111.286 76.7825L108.148 72.7513L103.331 75.1139L103.67 73.5413L107.583 71.6554L107.819 70.5587L104.467 69.8373L104.73 68.6165Z" fill="#20E46E"/>
<path d="M97.608 86.3034C97.8909 85.873 98.2287 85.5358 98.6215 85.2916C99.0172 85.0493 99.4376 84.9267 99.8828 84.9239C100.331 84.9229 100.776 85.0678 101.218 85.3585C101.607 85.6143 101.872 85.8983 102.013 86.2105C102.157 86.5246 102.214 86.8554 102.184 87.203C102.154 87.5505 102.071 87.9013 101.935 88.2554C101.801 88.6144 101.65 88.9651 101.484 89.3077C101.266 89.7552 101.086 90.116 100.944 90.3899C100.803 90.6687 100.727 90.8893 100.718 91.0518C100.706 91.2172 100.784 91.3552 100.952 91.4656L100.988 91.4889C101.424 91.7757 101.841 91.8791 102.24 91.7993C102.637 91.7224 102.993 91.4437 103.309 90.9632C103.636 90.465 103.784 90.0027 103.752 89.5763C103.72 89.1499 103.618 88.7979 103.446 88.5201L104.451 87.7622C104.747 88.2104 104.913 88.6574 104.95 89.1034C104.987 89.5542 104.936 89.985 104.796 90.3959C104.658 90.8116 104.477 91.1905 104.252 91.5324C104.109 91.7506 103.917 91.9837 103.678 92.2318C103.44 92.4848 103.154 92.6916 102.821 92.8522C102.485 93.0158 102.099 93.0805 101.661 93.0461C101.223 93.0117 100.735 92.8172 100.195 92.4626L95.7208 89.5209L96.4068 88.4774L97.3265 89.082L97.3614 89.029C97.2605 88.8613 97.1803 88.6397 97.1208 88.3642C97.0613 88.0887 97.0627 87.7751 97.125 87.4234C97.1873 87.0718 97.3483 86.6984 97.608 86.3034ZM98.4407 87.0788C98.1694 87.4915 98.0218 87.8927 97.9979 88.2822C97.9721 88.6748 98.0399 89.0275 98.2014 89.3406C98.361 89.6565 98.5822 89.9076 98.8652 90.0936L99.8203 90.7215C99.7963 90.6424 99.8116 90.5131 99.8662 90.3337C99.9219 90.1592 99.9974 89.964 100.093 89.7481C100.189 89.5371 100.286 89.3325 100.382 89.1343C100.48 88.9409 100.558 88.7833 100.617 88.6616C100.76 88.3672 100.869 88.0759 100.945 87.7877C101.021 87.5045 101.029 87.2393 100.967 86.9921C100.907 86.7499 100.744 86.5415 100.479 86.3671C100.117 86.1288 99.7542 86.0827 99.3922 86.2288C99.0311 86.3799 98.714 86.6632 98.4407 87.0788Z" fill="#20E46E"/>
<path d="M88.0901 107.18L83.37 100.563L84.3866 99.8378L89.1068 106.455L88.0901 107.18ZM86.237 103.744L85.5609 102.796C85.7292 102.546 85.9033 102.307 86.083 102.079C86.2648 101.854 86.4673 101.634 86.6906 101.418C86.9158 101.206 87.1778 100.993 87.4765 100.78C88.226 100.245 88.9721 100.018 89.7147 100.099C90.4545 100.183 91.1132 100.629 91.691 101.439L93.2029 103.559L92.1862 104.284L90.6743 102.164C90.4326 101.826 90.1692 101.593 89.8843 101.467C89.5994 101.341 89.3084 101.304 89.0115 101.355C88.7146 101.407 88.4282 101.531 88.1525 101.727C87.7218 102.035 87.3603 102.351 87.0681 102.676C86.7751 103.007 86.4981 103.363 86.237 103.744Z" fill="#20E46E"/>
<path d="M70.2986 105.762C71.0574 105.568 71.7547 105.568 72.3906 105.762C73.0239 105.961 73.5665 106.325 74.0183 106.854C74.4677 107.387 74.7953 108.057 75.0013 108.864C75.2073 109.671 75.2419 110.419 75.1051 111.11C74.9657 111.804 74.6752 112.392 74.2336 112.872C73.7894 113.357 73.2118 113.69 72.5009 113.872C72.0907 113.977 71.6682 114.012 71.2334 113.977C70.7986 113.942 70.3778 113.813 69.9712 113.589C69.5653 113.369 69.2009 113.032 68.8777 112.58C68.5546 112.127 68.2992 111.533 68.1115 110.798L67.9806 110.286L74.051 108.735L74.3181 109.781L69.4782 111.017C69.5916 111.462 69.7818 111.836 70.0485 112.139C70.3119 112.443 70.6317 112.654 71.0079 112.773C71.3807 112.893 71.7858 112.897 72.2233 112.785C72.7053 112.662 73.0917 112.436 73.3827 112.107C73.6711 111.782 73.8608 111.405 73.9519 110.978C74.043 110.551 74.0331 110.12 73.9223 109.686L73.7442 108.989C73.5923 108.394 73.361 107.916 73.0503 107.555C72.7371 107.198 72.3684 106.959 71.9443 106.838C71.521 106.72 71.065 106.724 70.5762 106.848C70.2583 106.93 69.9826 107.047 69.7489 107.202C69.5127 107.36 69.3237 107.554 69.182 107.783C69.0412 108.016 68.9544 108.282 68.9217 108.582L67.6689 108.552C67.6907 108.124 67.8085 107.723 68.0222 107.348C68.2368 106.976 68.5363 106.652 68.9208 106.376C69.3061 106.102 69.7654 105.898 70.2986 105.762Z" fill="#20E46E"/>
<path d="M52.8873 106.705C53.6439 106.796 54.2739 107.053 54.7773 107.475C55.2808 107.898 55.642 108.441 55.8609 109.103C56.0798 109.766 56.1408 110.5 56.0441 111.305C55.9456 112.125 55.7081 112.83 55.3316 113.421C54.9511 114.014 54.4682 114.456 53.8828 114.744C53.2935 115.036 52.6346 115.138 51.906 115.05C51.3386 114.982 50.8399 114.816 50.4098 114.551C49.9797 114.286 49.642 113.947 49.3968 113.534C49.1515 113.121 49.0241 112.658 49.0147 112.145L50.2546 112.294C50.305 112.673 50.476 113.024 50.7676 113.347C51.0554 113.673 51.4724 113.868 52.0188 113.934C52.5022 113.992 52.9411 113.917 53.3357 113.708C53.7263 113.503 54.0506 113.185 54.3084 112.754C54.5623 112.326 54.7259 111.808 54.7991 111.198C54.874 110.575 54.8412 110.02 54.7006 109.534C54.5565 109.048 54.3194 108.655 53.9893 108.356C53.6558 108.057 53.2439 107.878 52.7535 107.819C52.4313 107.78 52.1321 107.801 51.8559 107.881C51.5798 107.962 51.338 108.096 51.1306 108.285C50.9232 108.473 50.7634 108.709 50.651 108.994L49.4111 108.845C49.5383 108.377 49.7633 107.969 50.0858 107.621C50.4045 107.275 50.8032 107.018 51.2819 106.848C51.7567 106.681 52.2919 106.633 52.8873 106.705Z" fill="#20E46E"/>
<path d="M37.1273 109.579L36.5803 110.606L30.7509 107.503L31.2979 106.476L33.6521 107.729L36.9242 101.582L38.0266 102.169L34.7544 108.316L37.1273 109.579Z" fill="#20E46E"/>
<path d="M25.9126 93.2226L19.7596 98.5331L17.5883 96.0174C17.0167 95.3551 16.7122 94.6999 16.6748 94.0519C16.6374 93.4038 16.8644 92.8677 17.3557 92.4436C17.7296 92.1209 18.115 91.9817 18.512 92.0259C18.9063 92.0723 19.2893 92.2381 19.661 92.523C19.4971 92.2683 19.3871 91.9789 19.3309 91.6546C19.2724 91.3276 19.2942 90.9966 19.3964 90.6614C19.4959 90.3286 19.7072 90.0227 20.0304 89.7438C20.3455 89.4718 20.6964 89.3088 21.083 89.2547C21.4697 89.2005 21.8642 89.2608 22.2666 89.4354C22.6689 89.6101 23.0499 89.9057 23.4095 90.3223L25.9126 93.2226ZM24.2729 93.0721L22.5442 91.0691C22.263 90.7433 21.9654 90.5551 21.6515 90.5045C21.3376 90.4539 21.0471 90.5439 20.78 90.7744C20.4622 91.0487 20.292 91.3563 20.2695 91.6973C20.2442 92.0406 20.3722 92.3752 20.6534 92.701L22.3821 94.7039L24.2729 93.0721ZM21.5649 95.4093L20.1681 93.7909C19.9492 93.5372 19.7266 93.3495 19.5004 93.2278C19.2716 93.1084 19.0502 93.0571 18.8364 93.0739C18.6176 93.0904 18.4174 93.177 18.2358 93.3337C17.9767 93.5573 17.8671 93.8406 17.9069 94.1837C17.9441 94.5291 18.1263 94.8914 18.4536 95.2706L19.8504 96.889L21.5649 95.4093Z" fill="#20E46E"/>
<path d="M15.9709 76.7428C16.1438 77.228 16.2094 77.7008 16.1676 78.1614C16.1224 78.6232 15.9669 79.0325 15.7009 79.3895C15.4316 79.7477 15.0477 80.0156 14.5493 80.1933C14.1107 80.3497 13.7243 80.39 13.3903 80.3143C13.0529 80.2399 12.7545 80.0859 12.4953 79.8525C12.2361 79.6191 12.0061 79.3416 11.8053 79.0199C11.5999 78.6961 11.4107 78.3647 11.2374 78.0257C11.0117 77.5819 10.8324 77.2207 10.6995 76.9423C10.562 76.6617 10.4314 76.4686 10.3076 76.3629C10.1826 76.2539 10.0254 76.2332 9.83597 76.3007L9.79609 76.3149C9.3043 76.4902 8.97015 76.761 8.79362 77.1273C8.6159 77.4903 8.62359 77.9426 8.81667 78.4842C9.01686 79.0458 9.29675 79.4422 9.65637 79.6736C10.016 79.9049 10.3584 80.0356 10.6838 80.0657L10.683 81.3244C10.1467 81.2908 9.68978 81.1541 9.31214 80.9142C8.93 80.6722 8.61694 80.3718 8.37297 80.0131C8.12449 79.6523 7.93155 79.2791 7.79414 78.8937C7.70648 78.6478 7.6357 78.3547 7.5818 78.0143C7.52339 77.6719 7.53059 77.3191 7.60342 76.9561C7.67506 76.5898 7.85645 76.2424 8.14757 75.9139C8.43869 75.5854 8.8883 75.3127 9.49639 75.096L14.5405 73.2978L14.9599 74.4741L13.9231 74.8437L13.9444 74.9035C14.139 74.9241 14.3642 74.9936 14.6199 75.1122C14.8757 75.2307 15.1251 75.4208 15.3681 75.6825C15.6112 75.9441 15.8121 76.2976 15.9709 76.7428ZM14.8502 76.9401C14.6844 76.4749 14.4532 76.1154 14.1567 75.8615C13.8591 75.6043 13.5367 75.4459 13.1895 75.3861C12.8412 75.323 12.5076 75.3483 12.1886 75.462L11.112 75.8458C11.1895 75.8744 11.2835 75.9645 11.3937 76.1162C11.4995 76.2657 11.6097 76.4437 11.7244 76.6499C11.8347 76.8541 11.9398 77.0544 12.0398 77.251C12.1353 77.4454 12.2139 77.6027 12.2755 77.7231C12.4244 78.0146 12.591 78.2773 12.7755 78.5111C12.9555 78.7428 13.1626 78.9087 13.3967 79.0087C13.6264 79.1066 13.8907 79.1023 14.1898 78.9957C14.5985 78.85 14.8536 78.5886 14.9552 78.2116C15.0522 77.8325 15.0172 77.4086 14.8502 76.9401Z" fill="#20E46E"/>
</svg>
