<svg width="43" height="35" viewBox="0 0 43 35" fill="none" xmlns="http://www.w3.org/2000/svg">
<path d="M12.7651 30.0698L12.7317 28.4025L12.6984 22.1667C12.7606 21.9507 12.7531 21.7395 12.6757 21.5332C12.6446 21.4291 12.5761 21.3736 12.4703 21.3664C11.7509 21.3149 10.991 21.3175 10.1907 21.3744C10.0013 21.3869 9.86394 21.4371 9.77857 21.5252C9.68521 21.6212 9.60162 21.7546 9.52781 21.9253C8.66792 23.9119 7.7947 25.8926 6.90813 27.8676C6.02601 29.831 5.14612 31.8327 4.26844 33.8726C4.24486 33.9279 4.20714 33.9762 4.15897 34.0126C4.1108 34.0491 4.05384 34.0726 3.99367 34.0807C2.70962 34.2559 1.39978 34.2665 0.0641538 34.1127C0.0457861 34.1107 0.0288969 34.1018 0.0169798 34.0879C0.0050628 34.074 -0.000971636 34.0561 0.000127619 34.038C0.00990918 33.8699 0.0583739 33.717 0.145519 33.5792C0.303802 33.3266 0.385165 33.195 0.389611 33.1843C1.7866 30.2152 3.16179 27.2358 4.51521 24.2462C5.05942 23.044 5.61741 21.8591 6.18919 20.6915C6.21672 20.6352 6.2214 20.5705 6.20224 20.511C6.18307 20.4515 6.14156 20.4019 6.08648 20.3727C5.04163 19.8178 4.16085 19.1087 3.44413 18.2452C2.91503 17.6077 2.47442 16.8407 2.12228 15.9443C1.76481 15.0329 1.53494 14.117 1.43268 13.1966C1.27707 11.7899 1.2744 10.5645 1.42468 9.52053C1.50382 8.97187 1.65988 8.31829 1.89286 7.55977C2.12139 6.81548 2.36682 6.19169 2.62914 5.68838C3.49437 4.0273 4.74863 2.76636 6.39193 1.90559C7.11488 1.52677 7.95565 1.25289 8.91424 1.08394C9.88795 0.912314 10.8732 0.826058 11.87 0.825169C13.1577 0.825169 14.4457 0.825169 15.7342 0.825169C15.7449 0.825169 15.8134 0.821167 15.9396 0.813164C16.2509 0.792712 16.406 0.963444 16.4051 1.32536C16.3936 4.61552 16.3825 7.90568 16.3718 11.1958C16.3709 11.5907 16.3785 11.9326 16.3945 12.2216C16.4229 12.7293 16.4367 13.0695 16.4358 13.242C16.4136 17.5058 16.4154 21.7702 16.4411 26.0349C16.4447 26.6431 16.4358 27.2514 16.4145 27.8596C16.3914 28.491 16.3851 29.0979 16.3958 29.6803C16.4145 30.7518 16.4016 31.8234 16.3571 32.8949C16.3464 33.1652 16.354 33.472 16.3798 33.8153C16.3976 34.0447 16.2918 34.1652 16.0623 34.1767C15.0797 34.2274 14.0593 34.2256 13.0012 34.1714C12.9589 34.1692 12.9187 34.1527 12.8872 34.1246C12.8557 34.0964 12.8347 34.0584 12.8278 34.0167C12.7877 33.7775 12.7695 33.5178 12.7731 33.2377C12.7855 32.1813 12.7828 31.1253 12.7651 30.0698ZM12.6477 3.88502C12.3365 3.77742 12.0181 3.73563 11.6926 3.75964C11.2382 3.79254 10.787 3.84811 10.3388 3.92637C9.69765 4.03752 9.25215 4.13 9.00227 4.20381C8.52387 4.34342 8.0837 4.55817 7.68176 4.84806C7.32963 5.10149 6.9975 5.45096 6.68538 5.89646C5.75524 7.22409 5.26527 8.72378 5.21548 10.3955C5.18702 11.3363 5.21548 12.2145 5.30084 13.0299C5.39332 13.9111 5.64409 14.775 6.05313 15.6216C6.78764 17.1421 7.99299 18.0345 9.6692 18.2986C10.5638 18.44 11.5157 18.4938 12.525 18.46C12.5728 18.4586 12.6182 18.4388 12.6517 18.4048C12.6853 18.3707 12.7044 18.325 12.705 18.2772C12.7424 15.0342 12.7535 11.7632 12.7384 8.46412C12.7375 8.3832 12.7259 8.24937 12.7037 8.06263C12.6877 7.92747 12.6846 7.79231 12.6944 7.65714C12.7157 7.37348 12.7233 7.17473 12.717 7.06091C12.6833 6.45979 12.6961 5.85911 12.7557 5.25888C12.7957 4.84717 12.8011 4.44301 12.7717 4.04641C12.7689 4.01026 12.7556 3.97574 12.7336 3.94708C12.7116 3.91841 12.6817 3.89685 12.6477 3.88502Z" fill="#FE3534"/>
<path d="M21.3337 30.8849C20.9806 31.0485 20.6245 31.2313 20.2653 31.4331C20.251 31.4411 20.235 31.4454 20.2186 31.4458C20.2023 31.4462 20.1861 31.4427 20.1714 31.4355C20.1567 31.4283 20.144 31.4176 20.1343 31.4044C20.1247 31.3913 20.1183 31.3759 20.1159 31.3598C20.1007 31.2655 20.0847 31.1788 20.0678 31.0997C20.0492 31.0063 20.0389 30.9187 20.0372 30.8369C19.9296 25.1182 19.9038 19.3996 19.9598 13.6809C19.9731 12.3773 20.0003 11.589 20.0412 11.316C20.155 10.5637 20.4018 9.80388 20.7815 9.03647C21.7427 7.09795 22.7155 5.16475 23.6999 3.2369C23.7026 3.23245 23.8604 2.8772 24.1734 2.17115C24.3646 1.73899 24.6132 1.33661 24.9191 0.96402C24.9609 0.91255 25.0162 0.873356 25.0791 0.850643C25.489 0.702141 25.7523 0.770612 25.8688 1.05606C25.9648 1.2917 26.0808 1.51534 26.2169 1.72698C26.3965 2.00709 26.5214 2.22317 26.5917 2.37523C27.5147 4.36356 28.4626 6.33943 29.4355 8.30286C29.9583 9.35926 30.3963 10.1849 30.7493 10.7798C30.9263 11.0786 31.1108 11.2831 31.3029 11.3934C31.4958 11.5036 31.7088 11.569 31.9418 11.5895C32.205 11.6126 32.3397 11.6246 32.3459 11.6255C34.0168 11.8709 35.6885 12.1101 37.3612 12.3431C37.4626 12.3573 37.7209 12.3755 38.1362 12.3978C38.37 12.4102 38.6292 12.4431 38.9138 12.4965C40.0182 12.7028 41.1213 12.9166 42.2231 13.1381C42.456 13.1843 42.625 13.2728 42.7299 13.4035C42.9825 13.7201 42.9282 14.0571 42.5672 14.4146C42.264 14.7151 41.9487 15.0019 41.6215 15.2749C41.2071 15.6208 40.8883 15.9018 40.6651 16.1179C39.4202 17.3281 38.1668 18.5299 36.905 19.7233C36.2843 20.3102 35.6672 21.0162 35.0536 21.8414C34.7059 22.31 34.5748 22.8156 34.6601 23.358C35.0247 25.6807 35.4311 27.9958 35.8793 30.3034C36.034 31.0983 36.1412 32.149 36.2007 33.4552C36.2123 33.7069 36.1905 33.8914 36.1354 34.0088C36.0322 34.2275 35.8544 34.2809 35.6018 34.1689C35.3858 34.0737 35.2719 34.0239 35.2604 34.0195C34.8247 33.8656 34.4072 33.6718 34.0079 33.4379C33.1925 32.9613 32.3588 32.5198 31.5069 32.1134C30.5466 31.6554 29.6071 31.1588 28.6885 30.6235C27.4827 29.9219 26.6922 29.479 26.3169 29.295C25.6189 28.9508 24.9044 28.9864 24.1734 29.4017C23.591 29.7325 23.0041 30.0544 22.4128 30.3674C22.2331 30.4625 21.8734 30.635 21.3337 30.8849Z" fill="#FFDD52"/>
</svg>
